<svg id="Layer_1" data-name="Layer 1" xmlns="http://www.w3.org/2000/svg" viewBox="0 0 1000 1000"><defs><style>.cls-1{fill:#8fb8cc;}.cls-2{fill:#1e2454;}.cls-3{fill:none;stroke:#1e2454;stroke-linecap:round;stroke-miterlimit:10;stroke-width:4px;}.cls-4{fill:#e3e7e8;}.cls-5{fill:#f4cf84;}.cls-6{fill:#ffe7bd;}</style></defs><path class="cls-1" d="M459.91,474V698.76A46.13,46.13,0,0,0,506,744.89H666.68a46.13,46.13,0,0,0,46.12-46.13V529.07a21.16,21.16,0,0,0-6.2-15L626.53,434a21.21,21.21,0,0,0-15-6.19H506A46.12,46.12,0,0,0,459.91,474Z"/><path class="cls-2" d="M564.09,526.05V427.83h-48v98.22A22.14,22.14,0,0,1,494,548.17H459.91v48H494A70.2,70.2,0,0,0,564.09,526.05Z"/><path class="cls-3" d="M459.91,474V698.76A46.13,46.13,0,0,0,506,744.89H666.68a46.13,46.13,0,0,0,46.12-46.13V529.07a21.16,21.16,0,0,0-6.2-15L626.53,434a21.21,21.21,0,0,0-15-6.19H506A46.12,46.12,0,0,0,459.91,474Z"/><path class="cls-4" d="M620.33,429.75V507a13.34,13.34,0,0,0,13.34,13.34h77.21a21.17,21.17,0,0,0-4.28-6.2L626.53,434A21.33,21.33,0,0,0,620.33,429.75Z"/><path class="cls-3" d="M710.88,520.3a21.17,21.17,0,0,0-4.28-6.2L626.53,434a21.33,21.33,0,0,0-6.2-4.27"/><path class="cls-3" d="M620.33,451.16V507a13.34,13.34,0,0,0,13.34,13.34h63.24"/><path class="cls-5" d="M287.2,301.24V526.05a46.12,46.12,0,0,0,46.12,46.12H494a46.12,46.12,0,0,0,46.12-46.12V356.36a21.16,21.16,0,0,0-6.2-15l-80.07-80.08a21.18,21.18,0,0,0-15-6.2H333.32A46.13,46.13,0,0,0,287.2,301.24Z"/><path class="cls-3" d="M287.2,301.24V526.05a46.12,46.12,0,0,0,46.12,46.12H494a46.12,46.12,0,0,0,46.12-46.12V356.36a21.16,21.16,0,0,0-6.2-15l-80.07-80.08a21.18,21.18,0,0,0-15-6.2H333.32A46.13,46.13,0,0,0,287.2,301.24Z"/><path class="cls-6" d="M447.62,257v77.21A13.34,13.34,0,0,0,461,347.59h77.21a21.17,21.17,0,0,0-4.28-6.2l-80.08-80.08A21.16,21.16,0,0,0,447.62,257Z"/><path class="cls-3" d="M538.17,347.59a21.17,21.17,0,0,0-4.28-6.2l-80.08-80.08a21.16,21.16,0,0,0-6.19-4.27"/><path class="cls-3" d="M447.62,278.45v55.8A13.34,13.34,0,0,0,461,347.59H524.2"/></svg>