<svg id="Layer_1" data-name="Layer 1" xmlns="http://www.w3.org/2000/svg" viewBox="0 0 1000 1000"><defs><style>.cls-1{fill:#1e2454;}.cls-2{fill:none;stroke:#1e2454;stroke-linecap:round;stroke-miterlimit:10;stroke-width:4px;}.cls-3{fill:#9fb3c1;}.cls-4{fill:#257ed6;}.cls-5{fill:#e1eeef;}</style></defs><path class="cls-1" d="M464.83,603.33v45.34a16.66,16.66,0,0,1-16.66,16.66h-8.62a10,10,0,0,0-10,10h0a10,10,0,0,0,10,10h90.29a35.66,35.66,0,0,0,35.66-35.66V603.33Z"/><path class="cls-2" d="M464.83,603.33v45.34a16.66,16.66,0,0,1-16.66,16.66h-8.62a10,10,0,0,0-10,10h0a10,10,0,0,0,10,10h90.29a35.66,35.66,0,0,0,35.66-35.66V603.33Z"/><path class="cls-3" d="M432.33,603.33v45.34a16.66,16.66,0,0,1-16.66,16.66h-8.62a10,10,0,0,0-10,10h0a10,10,0,0,0,10,10h90.29A35.66,35.66,0,0,0,533,649.67V603.33Z"/><rect class="cls-1" x="432.33" y="603.33" width="100.67" height="31.38"/><path class="cls-2" d="M432.33,648.67a16.66,16.66,0,0,1-16.66,16.66h-8.62a10,10,0,0,0-10,10h0a10,10,0,0,0,10,10h90.29A35.66,35.66,0,0,0,533,649.67V603.33H432.33"/><rect class="cls-1" x="283.33" y="314.67" width="468" height="292" rx="29.56"/><rect class="cls-2" x="283.33" y="314.67" width="468" height="292" rx="29.56"/><rect class="cls-4" x="248.67" y="314.67" width="468" height="292" rx="29.56"/><path class="cls-5" d="M248.67,564v13.11a29.56,29.56,0,0,0,29.55,29.56H687.11a29.57,29.57,0,0,0,29.56-29.56V564Z"/><line class="cls-2" x1="716.67" y1="564" x2="295.76" y2="564"/><path class="cls-2" d="M278.22,314.67H687.11a29.56,29.56,0,0,1,29.56,29.55V577.11a29.57,29.57,0,0,1-29.56,29.56H278.22a29.56,29.56,0,0,1-29.55-29.56V344.22"/><circle class="cls-1" cx="482.67" cy="585.33" r="6.67"/><line class="cls-2" x1="197.06" y1="685.33" x2="802.94" y2="685.33"/></svg>