<?xml version="1.0" standalone="no"?>
<!DOCTYPE svg PUBLIC "-//W3C//DTD SVG 20010904//EN"
 "http://www.w3.org/TR/2001/REC-SVG-20010904/DTD/svg10.dtd">
<svg version="1.0" xmlns="http://www.w3.org/2000/svg"
 width="348.000000pt" height="327.000000pt" viewBox="0 0 348.000000 327.000000"
 preserveAspectRatio="xMidYMid meet">
<metadata>
Created by potrace 1.16, written by Peter Selinger 2001-2019
</metadata>
<g transform="translate(0.000000,327.000000) scale(0.100000,-0.100000)"
fill="#000000" stroke="none">
<path d="M941 2446 c-424 -432 -771 -789 -771 -794 0 -11 905 -935 1300 -1327
l251 -250 789 795 789 795 -783 783 c-430 430 -788 782 -793 782 -6 0 -358
-353 -782 -784z m1167 335 c437 -427 1102 -1098 1102 -1112 0 -22 -1276 -1308
-1432 -1443 l-68 -58 -57 50 c-32 28 -368 361 -747 741 l-689 689 627 635
c601 609 862 865 879 866 4 1 177 -165 385 -368z"/>
<path d="M1605 3011 c-38 -41 -351 -360 -695 -708 -344 -349 -625 -639 -625
-645 0 -12 912 -308 946 -308 11 0 20 14 27 38 89 330 422 1660 420 1676 -3
18 -14 9 -73 -53z m-21 -118 c-2 -10 -80 -319 -173 -688 -94 -369 -176 -695
-183 -725 -13 -52 -15 -55 -43 -53 -53 4 -795 240 -795 253 0 15 296 324 754
788 241 243 439 442 441 442 2 0 1 -8 -1 -17z"/>
<path d="M1737 3033 c-5 -9 -363 -1404 -396 -1547 -12 -49 -18 -93 -14 -96 10
-9 101 5 653 101 594 103 1123 199 1129 205 6 6 -1092 1107 -1241 1245 -103
95 -121 108 -131 92z"/>
<path d="M330 1587 c-1 -13 1000 -1010 1194 -1190 66 -61 121 -106 123 -100 4
12 -391 1002 -404 1014 -8 7 -776 251 -865 275 -36 9 -48 9 -48 1z m552 -214
l318 -104 21 -47 c32 -71 286 -703 294 -732 4 -15 -188 170 -499 480 -278 278
-506 508 -506 513 0 11 28 3 372 -110z"/>
<path d="M2650 1530 c-212 -37 -529 -94 -705 -125 -176 -31 -385 -67 -464 -80
-79 -13 -149 -29 -154 -34 -7 -7 41 -139 151 -413 89 -222 172 -432 186 -468
13 -36 34 -87 45 -114 l22 -50 545 545 c535 533 774 780 774 799 0 12 51 20
-400 -60z"/>
</g>
</svg>
